<svg width="32" height="32" viewBox="0 0 32 32" fill="none" xmlns="http://www.w3.org/2000/svg">
<path d="M20 25.3334C19.2666 25.3334 18.6391 25.0725 18.1173 24.5507C17.5946 24.0281 17.3333 23.4001 17.3333 22.6667V9.33341C17.3333 8.60008 17.5946 7.97253 18.1173 7.45075C18.6391 6.92808 19.2666 6.66675 20 6.66675H22.6666C23.4 6.66675 24.028 6.92808 24.5506 7.45075C25.0724 7.97253 25.3333 8.60008 25.3333 9.33341V22.6667C25.3333 23.4001 25.0724 24.0281 24.5506 24.5507C24.028 25.0725 23.4 25.3334 22.6666 25.3334H20ZM9.33329 25.3334C8.59996 25.3334 7.9724 25.0725 7.45063 24.5507C6.92796 24.0281 6.66663 23.4001 6.66663 22.6667V9.33341C6.66663 8.60008 6.92796 7.97253 7.45063 7.45075C7.9724 6.92808 8.59996 6.66675 9.33329 6.66675H12C12.7333 6.66675 13.3613 6.92808 13.884 7.45075C14.4057 7.97253 14.6666 8.60008 14.6666 9.33341V22.6667C14.6666 23.4001 14.4057 24.0281 13.884 24.5507C13.3613 25.0725 12.7333 25.3334 12 25.3334H9.33329ZM20 22.6667H22.6666V9.33341H20V22.6667ZM9.33329 22.6667H12V9.33341H9.33329V22.6667Z" fill="white"/>
</svg>
